<svg height='100px' width='100px'  fill="#f15f61" xmlns="http://www.w3.org/2000/svg" xmlns:xlink="http://www.w3.org/1999/xlink" xmlns:serif="http://www.serif.com/" viewBox="0 0 32 32" version="1.1" xml:space="preserve" style="" x="0px" y="0px" fill-rule="evenodd" clip-rule="evenodd" stroke-linejoin="round" stroke-miterlimit="1.41421"><rect serif:id="check choice square" x="0" y="0" width="32" height="32" style="" fill="none"></rect><path d="M26.082,5.007c0.076,0.01 0.096,0.01 0.171,0.03c0.608,0.163 0.941,0.995 0.56,1.539c-0.15,0.214 -0.387,0.365 -0.645,0.41c-0.076,0.014 -0.096,0.012 -0.173,0.016c-6.001,0 -12.003,-0.093 -18.004,0c-0.511,0.011 -0.972,0.465 -0.98,0.986c-0.05,5.339 -0.083,10.679 0,16.018c0.011,0.512 0.464,0.972 0.986,0.98c5.339,0.051 10.679,0.083 16.018,0c0.515,-0.011 0.979,-0.462 0.981,-1l0,-13.987c0.003,-0.077 0.001,-0.097 0.015,-0.173c0.136,-0.774 1.38,-1.139 1.849,-0.326c0.058,0.1 0.098,0.211 0.119,0.326c0.013,0.076 0.011,0.096 0.015,0.173c0,4.669 0.014,9.338 0,14.007c-0.015,1.547 -1.344,2.963 -2.979,2.979c-5.341,0.016 -10.683,0.016 -16.024,0c-1.546,-0.015 -2.964,-1.363 -2.979,-2.979c-0.016,-5.341 -0.016,-10.683 0,-16.024c0.015,-1.558 1.362,-2.974 2.996,-2.979l17.987,0c0.029,0.002 0.058,0.003 0.087,0.004Zm-5.005,5.994c0.23,0.026 0.297,0.06 0.416,0.128c0.452,0.257 0.638,0.899 0.374,1.363c-0.028,0.049 -0.037,0.059 -0.069,0.105l-5.995,7.993c-0.124,0.156 -0.173,0.188 -0.268,0.247c-0.345,0.216 -0.822,0.194 -1.146,-0.059c-0.043,-0.033 -0.052,-0.044 -0.092,-0.081l-3.996,-3.996c-0.159,-0.169 -0.187,-0.239 -0.234,-0.369c-0.229,-0.637 0.363,-1.441 1.097,-1.325c0.206,0.033 0.396,0.136 0.55,0.281l3.182,3.182l5.304,-7.072c0,0 0.432,-0.417 0.877,-0.397Z" style="" fill-rule="nonzero"></path></svg>